<?xml version="1.0" encoding="utf-8"?>
<!-- Generator: Adobe Illustrator 21.0.0, SVG Export Plug-In . SVG Version: 6.00 Build 0)  -->
<svg version="1.1" id="Слой_1" xmlns="http://www.w3.org/2000/svg" xmlns:xlink="http://www.w3.org/1999/xlink" x="0px" y="0px"
	 fill="#A0A0A0" width="40px" height="50px" viewBox="0 0 100 100" style="enable-background:new 0 0 100 100;" xml:space="preserve">
<g>
	<path d="M59.9,59.7L59.9,59.7L59.9,59.7c-1.1-1.9-3.3-2.6-5.3-1.9c-1.5,0.6-3,0.9-4.5,0.9c-1.5,0-3-0.3-4.5-0.9
		c-2-0.8-4.2,0-5.3,1.9L26,84.4c-0.6,1-0.7,2.2-0.4,3.4c0.3,1.1,1.1,2.1,2.1,2.6c6.9,3.6,14.6,5.5,22.3,5.5c7.7,0,15.4-1.9,22.3-5.5
		c1-0.5,1.8-1.5,2.1-2.6c0.3-1.1,0.2-2.4-0.4-3.4L59.9,59.7z M56.8,61.5l14.2,24.6c0.1,0.2,0.1,0.5,0.1,0.6c0,0.1-0.1,0.3-0.4,0.4
		c-6.4,3.3-13.6,5.1-20.7,5.1c-7.1,0-14.3-1.8-20.7-5.1c-0.2-0.1-0.3-0.3-0.4-0.4c0-0.1-0.1-0.3,0.1-0.6l14.2-24.6
		c0.1-0.2,0.4-0.4,0.6-0.4c0.1,0,0.2,0,0.3,0.1c1.9,0.8,3.9,1.1,5.8,1.1c1.9,0,3.9-0.4,5.8-1.1C56.3,61.1,56.7,61.2,56.8,61.5z"/>
	<path d="M37.7,44.3c0.5-3.2,2-5.8,4.6-7.9c1.7-1.3,2.1-3.7,1-5.5L29.1,6.3c-0.6-1-1.6-1.8-2.7-2C25.2,4,24,4.2,23,4.8
		c-0.2,0.1-0.4,0.2-0.5,0.4c-8,5.4-14,12.4-17.8,21C3.1,29.8,2,33.6,1.3,37.7c-0.3,1.8-0.5,3.8-0.6,5.8c-0.1,1.2,0.4,2.3,1.2,3.2
		C2.7,47.5,3.8,48,5,48h28.4C35.6,48,37.4,46.4,37.7,44.3z M26,8.1l14.2,24.6c0.2,0.3,0.1,0.7-0.2,1c-3.3,2.6-5.2,6-5.9,10.1
		c-0.1,0.4-0.4,0.6-0.7,0.6H5c-0.3,0-0.5-0.1-0.5-0.2c-0.1-0.1-0.2-0.3-0.2-0.5c0.1-1.9,0.3-3.7,0.6-5.4c0.6-3.7,1.7-7.3,3.1-10.6
		c3.5-7.9,9-14.5,16.5-19.5C24.6,8,24.8,7.9,25,7.8c0.1-0.1,0.3-0.1,0.4-0.1c0.1,0,0.1,0,0.2,0C25.7,7.8,25.9,7.8,26,8.1z"/>
	<path d="M99.3,43.4c-0.1-2-0.3-4-0.6-5.8c-0.7-4-1.8-7.9-3.4-11.5c-3.7-8.6-9.7-15.6-17.8-21c-0.2-0.1-0.4-0.2-0.5-0.4
		c-1-0.6-2.2-0.8-3.3-0.6c-1.1,0.3-2.1,1-2.7,2L56.7,30.9c-1.1,1.9-0.6,4.2,1,5.5c2.6,2.1,4.1,4.7,4.6,7.9c0.3,2.1,2.1,3.6,4.3,3.6
		H95c1.2,0,2.3-0.5,3.1-1.4C98.9,45.8,99.4,44.6,99.3,43.4z M95.5,44.2L95.5,44.2c-0.1,0.1-0.3,0.2-0.5,0.2H66.6
		c-0.4,0-0.7-0.3-0.7-0.6c-0.7-4.1-2.6-7.5-5.9-10.1c-0.3-0.2-0.4-0.6-0.2-1L74,8.1c0.1-0.2,0.4-0.3,0.5-0.4c0,0,0.1,0,0.2,0
		c0.1,0,0.3,0,0.4,0.1c0.2,0.1,0.3,0.2,0.5,0.3c7.5,5,13,11.5,16.5,19.5c1.5,3.3,2.5,6.9,3.1,10.6c0.3,1.6,0.5,3.5,0.6,5.4
		C95.7,43.9,95.6,44.1,95.5,44.2z"/>
	<path d="M39.2,46.2c0,2.9,1.1,5.6,3.1,7.6c2,2.1,4.8,3.2,7.6,3.2l0.1,0c2.9,0,5.6-1.1,7.6-3.2c2-2,3.2-4.7,3.2-7.6
		c0-6-4.8-10.8-10.8-10.8l0,0c-2.9,0-5.6,1.1-7.6,3.1C40.4,40.6,39.2,43.3,39.2,46.2z M50.1,39c4,0,7.2,3.3,7.2,7.3
		c0,4-3.3,7.2-7.2,7.3l-0.1,0c-1.9,0-3.7-0.8-5.1-2.2c-1.4-1.4-2.1-3.2-2.1-5.1C42.8,42.2,46.1,39,50.1,39l0-0.2L50.1,39z M50,55.3
		L50,55.3L50,55.3L50,55.3z"/>
</g>
</svg>
