<?xml version="1.0" encoding="utf-8"?>
<!-- Generator: Adobe Illustrator 21.0.0, SVG Export Plug-In . SVG Version: 6.00 Build 0)  -->
<svg version="1.1" id="Layer_1" xmlns="http://www.w3.org/2000/svg" xmlns:xlink="http://www.w3.org/1999/xlink" x="0px" y="0px"
	 width="50" height="50" viewBox="0 0 512 512" style="enable-background:new 0 0 512 512;" xml:space="preserve">
<g>
	<g>
		<path d="M392.3,226.1c0-16.2-13.2-29.4-29.4-29.4h-54c13.1-14.8,21.7-31.6,23.4-46.6c1-9.2-1.8-18.3-7.8-25.1
			c-5.5-6.1-12.9-9.6-21-9.7c-0.1,0-0.2,0-0.3,0c-7.8,0-15.2,3-20.7,8.5c-5.5,5.5-8.6,12.8-8.7,20.6c-0.3,1.7-3.3,7.6-10.7,14.6
			c-6,5.7-16.4,13.6-31.8,18.6c-6,2-11.5,5.6-16.4,10.7c-2.5,2.7-6.3,6.4-11,10.2c-2.3-1.2-4.9-1.9-7.7-1.9h-51.3
			c-9.1,0-16.6,7.4-16.6,16.6v136.8c0,9.1,7.4,16.6,16.6,16.6h51.3c6.2,0,11.7-3.5,14.5-8.6h130.9c13.9,0,25.1-11.3,25.1-25.1
			c0-4.7-1.3-9-3.5-12.8c7.2-4.4,12-12.4,12-21.4c0-4.7-1.3-9-3.5-12.8c7.2-4.4,12-12.4,12-21.4c0-5.2-1.6-10.1-4.4-14.1
			C387.2,245.1,392.3,236.2,392.3,226.1z M362.9,239.4h-4.3c-4.4,0-8,3.6-8,8c0,4.4,3.6,8,8,8c5,0,9.1,4.1,9.1,9.1s-4.1,9.1-9.1,9.1
			h-8.6c-4.4,0-8,3.6-8,8c0,4.4,3.6,8,8,8c5,0,9.1,4.1,9.1,9.1s-4.1,9.1-9.1,9.1h-8.6c-4.4,0-8,3.6-8,8c0,4.4,3.6,8,8,8
			c5,0,9.1,4.1,9.1,9.1s-4.1,9.1-9.1,9.1H212.7v-77.5c0-4.4-3.6-8-8-8s-8,3.6-8,8v85.5c0,0.3-0.2,0.5-0.5,0.5h-51.3
			c-0.3,0-0.5-0.2-0.5-0.5V213.2c0-0.3,0.2-0.5,0.5-0.5h51.3c0.3,0,0.5,0.2,0.5,0.5v17.1c0,4.4,3.6,8,8,8s8-3.6,8-8v-17.1
			c0-0.4,0-0.8-0.1-1.2c6-4.7,10.8-9.4,14-12.7c3-3.2,6.2-5.3,9.6-6.4c18.9-6.1,31.6-16,38.9-23.2c9.2-9,14.7-18.4,14.7-25.2
			c0-3.6,1.4-6.9,3.9-9.4c2.5-2.5,5.9-3.9,9.6-3.9c4.5,0,7.5,2.3,9.2,4.3c2.9,3.3,4.4,8,3.9,12.7c-1.8,15.9-14.5,35.6-32.5,50.2
			c-2.6,2.1-3.6,5.7-2.5,8.9s4.2,5.3,7.6,5.3h74c7.4,0,13.4,6,13.4,13.4S370.3,239.4,362.9,239.4z"/>
	</g>
</g>
<g>
	<g>
		<path d="M170.5,316.3c-4.4,0-8.1,3.6-8.1,8.1s3.6,8.1,8.1,8.1s8.1-3.6,8.1-8.1C178.5,319.9,174.9,316.3,170.5,316.3z"/>
	</g>
</g>
<g>
	<g>
		<path d="M392.3,111c-4.4,0-8.1,3.6-8.1,8.1s3.6,8.1,8.1,8.1s8.1-3.6,8.1-8.1C400.4,114.6,396.8,111,392.3,111z"/>
	</g>
</g>
<g>
	<g>
		<path d="M497.7,256l13.8-36.4c1-2.7,0.5-5.6-1.2-7.8l-24.4-30.4l1.8-38.9c0.1-2.8-1.2-5.5-3.6-7.1l-32.6-21.4l-10.3-37.6
			c-0.7-2.7-2.9-4.9-5.6-5.6l-37.6-10.3l-21.4-32.6c-1.6-2.4-4.2-3.7-7.1-3.6l-38.9,1.8L300.3,1.8c-2.2-1.8-5.2-2.2-7.8-1.2
			L256,14.3L219.6,0.5c-2.7-1-5.6-0.5-7.8,1.2l-30.4,24.4l-38.9-1.8c-2.8-0.1-5.5,1.2-7.1,3.6l-21.4,32.6L76.3,70.7
			c-2.7,0.7-4.9,2.9-5.6,5.6l-10.3,37.6l-32.6,21.4c-2.4,1.6-3.7,4.2-3.6,7.1l1.8,38.9L1.8,211.7c-1.8,2.2-2.2,5.2-1.2,7.8L14.3,256
			L0.5,292.4c-1,2.7-0.5,5.6,1.2,7.8l24.4,30.4l-1.8,38.9c-0.1,2.8,1.2,5.5,3.6,7.1l32.6,21.4l10.3,37.6c0.7,2.7,2.9,4.9,5.6,5.6
			l37.6,10.3l21.4,32.6c1.6,2.4,4.3,3.7,7.1,3.6l38.9-1.8l30.4,24.4c2.2,1.8,5.2,2.2,7.8,1.2l36.4-13.8l36.4,13.8
			c0.9,0.3,1.9,0.5,2.8,0.5c1.8,0,3.6-0.6,5-1.8l30.4-24.4l38.9,1.8c2.8,0.1,5.5-1.2,7.1-3.6l21.4-32.6l37.6-10.3
			c2.7-0.7,4.9-2.9,5.6-5.6l10.3-37.6l32.6-21.4c2.4-1.6,3.7-4.2,3.6-7.1l-1.8-38.9l24.4-30.4c1.8-2.2,2.2-5.2,1.2-7.8L497.7,256z
			 M481.6,258.8l13.2,35L471.5,323c-1.2,1.5-1.8,3.4-1.8,5.4l1.8,37.4l-31.3,20.5c-1.6,1.1-2.8,2.7-3.3,4.6L427,427l-36.1,9.9
			c-1.9,0.5-3.5,1.7-4.6,3.3l-20.5,31.3l-37.4-1.8c-2-0.1-3.9,0.5-5.4,1.8l-29.2,23.4l-35-13.2c-0.9-0.3-1.9-0.5-2.8-0.5
			s-1.9,0.2-2.8,0.5l-35,13.2L189,471.5c-1.5-1.2-3.4-1.8-5.4-1.8l-37.4,1.8l-20.5-31.3c-1.1-1.6-2.7-2.8-4.6-3.3L85,427l-9.9-36.1
			c-0.5-1.9-1.7-3.5-3.3-4.6l-31.3-20.5l1.8-37.4c0.1-2-0.5-3.9-1.8-5.4l-23.4-29.2l13.2-35c0.7-1.8,0.7-3.8,0-5.7l-13.2-35
			L40.5,189c1.2-1.5,1.8-3.4,1.8-5.4l-1.8-37.4l31.3-20.5c1.6-1.1,2.8-2.7,3.3-4.6L85,85l36.1-9.9c1.9-0.5,3.5-1.7,4.6-3.3
			l20.5-31.3l37.4,1.8c1.9,0.1,3.9-0.5,5.4-1.8l29.2-23.4l35,13.2c1.8,0.7,3.8,0.7,5.7,0l35-13.2L323,40.5c1.5,1.2,3.4,1.8,5.4,1.8
			l37.4-1.8l20.5,31.3c1.1,1.6,2.7,2.8,4.6,3.3L427,85l9.9,36.1c0.5,1.9,1.7,3.5,3.3,4.6l31.3,20.5l-1.8,37.4
			c-0.1,2,0.5,3.9,1.8,5.4l23.4,29.2l-13.2,35C481,255,481,257,481.6,258.8z"/>
	</g>
</g>
<g>
	<g>
		<path d="M365.6,83.1c-38.7-24.6-85.2-35.6-131.1-30.8C188,57.1,144.1,78,111,111.2c-36.5,36.5-57.7,84.9-59.8,136.4
			c-2.1,51.2,18.9,106.9,51.7,146c1.6,1.9,3.9,2.9,6.1,2.9c1.8,0,3.7-0.6,5.2-1.9c3.4-2.9,3.8-7.9,1-11.3c-30.3-36-49.9-87.8-48-135
			c1.9-47.5,21.5-92.1,55.1-125.7c30.5-30.5,71-49.8,113.8-54.2c42.3-4.4,85.2,5.7,120.8,28.4c3.7,2.4,8.7,1.3,11.1-2.5
			C370.4,90.5,369.3,85.5,365.6,83.1z"/>
	</g>
</g>
<g>
	<g>
		<path d="M428.5,146c-2.4-3.7-7.3-4.8-11.1-2.5c-3.7,2.4-4.8,7.3-2.5,11.1c22.7,35.6,32.8,78.5,28.4,120.8
			c-4.4,42.9-23.7,83.3-54.2,113.8c-33.6,33.6-78.3,53.2-125.7,55.1c-47.2,1.9-110-28.7-146-59c-3.4-2.9-8.4-2.4-11.3,1
			c-2.9,3.4-2.4,8.4,1,11.3c36.9,31.1,100.4,62.9,148.6,62.9c2.8,0,5.6-0.1,8.4-0.2c51.5-2.1,99.9-23.3,136.4-59.8
			c33.1-33.1,54-77,58.9-123.5C464.1,231.2,453.1,184.7,428.5,146z"/>
	</g>
</g>
</svg>
