<?xml version="1.0" encoding="utf-8"?>
<!-- Generator: Adobe Illustrator 21.0.0, SVG Export Plug-In . SVG Version: 6.00 Build 0)  -->
<svg version="1.1" id="Слой_1" xmlns="http://www.w3.org/2000/svg" xmlns:xlink="http://www.w3.org/1999/xlink" x="0px" y="0px"
	 width="50" height="50" viewBox="0 0 512 512" style="enable-background:new 0 0 512 512;" xml:space="preserve">
<path d="M478,106.5h-20l0-35.8c0-24-19.5-43.6-43.6-43.6L262.5,27c0,0,0,0,0,0c-8.6,0-16.8,3.4-22.9,9.5L12.8,263.3
	C4.5,271.5,0,282.5,0,294.1s4.5,22.6,12.8,30.8L160,472.1c8.5,8.5,19.7,12.7,30.8,12.7c11.2,0,22.3-4.2,30.8-12.7l142.8-142.8
	c3.9-3.9,3.9-10.2,0-14.1c-3.9-3.9-10.2-3.9-14.1,0L207.4,458c-9.2,9.2-24.1,9.2-33.3,0L26.9,310.8c-4.5-4.5-6.9-10.4-6.9-16.7
	s2.5-12.2,6.9-16.7L253.7,50.6c2.3-2.3,5.4-3.6,8.8-3.6h0l151.9,0.1c13,0,23.6,10.6,23.6,23.6l0,83.8h-45c-3.9,0-7.4-1.6-9.9-4.1
	c4.2-1.8,8.1-4.4,11.5-7.8c14.4-14.4,14.4-37.8,0-52.1c-14.4-14.4-37.8-14.4-52.1,0c-14.4,14.4-14.4,37.8,0,52.1
	c5.3,5.3,11.9,8.7,18.8,10.1c4.9,12.8,17.3,21.9,31.8,21.9h45l0,47.9c0,3.3-1.3,6.4-3.6,8.8l-27.5,27.5c-3.9,3.9-3.9,10.2,0,14.1
	c3.9,3.9,10.2,3.9,14.1,0l27.5-27.5c6.1-6.1,9.5-14.2,9.5-22.9l0-47.9H478c18.7,0,34-15.3,34-34C512,121.7,496.7,106.5,478,106.5z
	 M356.5,104.6c3.3-3.3,7.6-4.9,11.9-4.9c4.3,0,8.6,1.6,11.9,4.9c1,1,1.9,2.2,2.6,3.4c-11,3.4-19.6,12.1-22.8,23.2
	c-1.3-0.7-2.6-1.7-3.7-2.8C349.9,121.8,349.9,111.1,356.5,104.6z M478,154.5h-20l0-28h20c7.7,0,14,6.3,14,14S485.7,154.5,478,154.5z
	"/>
<path d="M99.5,258.6c-3.9-3.9-10.2-3.9-14.1,0l-28.4,28.4c-1.9,1.9-2.9,4.4-2.9,7.1s1.1,5.2,2.9,7.1L183.7,428
	c1.9,1.9,4.5,2.9,7.1,2.9s5.1-1,7.1-2.9l189.6-189.6c3.9-3.9,3.9-10.2,0-14.1L260.6,97.5c-1.9-1.9-4.4-2.9-7.1-2.9s-5.2,1.1-7.1,2.9
	L141.9,202.1c-3.9,3.9-3.9,10.2,0,14.1c3.9,3.9,10.2,3.9,14.1,0l97.5-97.5l112.7,112.7L190.8,406.8L78.1,294.1l21.3-21.3
	C103.4,268.9,103.4,262.5,99.5,258.6z"/>
<path d="M385.6,284c-2.6,0-5.2,1.1-7.1,2.9s-2.9,4.4-2.9,7.1s1.1,5.2,2.9,7.1s4.4,2.9,7.1,2.9c2.6,0,5.2-1.1,7.1-2.9
	c1.9-1.9,2.9-4.4,2.9-7.1s-1.1-5.2-2.9-7.1C390.8,285,388.3,284,385.6,284z"/>
<path d="M127.7,244.5c1.9-1.9,2.9-4.4,2.9-7.1c0-2.6-1.1-5.2-2.9-7.1c-1.9-1.9-4.4-2.9-7.1-2.9c-2.6,0-5.2,1.1-7.1,2.9
	c-1.9,1.9-2.9,4.4-2.9,7.1c0,2.6,1.1,5.2,2.9,7.1c1.9,1.9,4.4,2.9,7.1,2.9C123.3,247.4,125.9,246.4,127.7,244.5z"/>
</svg>
