<?xml version="1.0" encoding="iso-8859-1"?>
<!-- Generator: Adobe Illustrator 19.0.0, SVG Export Plug-In . SVG Version: 6.00 Build 0)  -->
<svg version="1.1" id="Layer_1" xmlns="http://www.w3.org/2000/svg" xmlns:xlink="http://www.w3.org/1999/xlink" x="0px" y="0px"
	 fill="#A0A0A0" width="40px" height="50px"	 viewBox="0 0 512.009 512.009" style="enable-background:new 0 0 512.009 512.009;" xml:space="preserve">
<g>
	<g>
		<g>
			<path d="M213.33,307.209c0.546,0,1.118-0.051,1.681-0.171l85.333-17.067c4.617-0.922,7.62-5.419,6.699-10.035
				c-0.93-4.617-5.376-7.612-10.044-6.699l-32.461,6.494v-32.256c0-4.71-3.814-8.533-8.533-8.533c-4.719,0-8.533,3.823-8.533,8.533
				v35.669l-35.806,7.168c-4.617,0.922-7.62,5.419-6.699,10.035C205.778,304.402,209.345,307.209,213.33,307.209z"/>
			<path d="M213.33,375.476c0.546,0,1.118-0.051,1.681-0.171l85.333-17.067c4.617-0.922,7.62-5.419,6.699-10.035
				c-0.93-4.617-5.376-7.637-10.044-6.699l-85.333,17.067c-4.617,0.93-7.62,5.427-6.699,10.044
				C205.778,372.668,209.345,375.476,213.33,375.476z"/>
			<path d="M256.006,221.876c28.237,0,51.2-22.963,51.2-51.2c0-28.237-22.963-51.2-51.2-51.2s-51.2,22.963-51.2,51.2
				C204.806,198.912,227.769,221.876,256.006,221.876z M256.006,136.542c18.825,0,34.133,15.309,34.133,34.133
				c0,18.825-15.309,34.133-34.133,34.133s-34.133-15.309-34.133-34.133C221.872,151.851,237.181,136.542,256.006,136.542z"/>
			<path d="M242.105,67.67l25.583-10.24l-11.238,33.749c-1.493,4.471,0.922,9.301,5.393,10.795c0.896,0.299,1.809,0.435,2.697,0.435
				c3.576,0,6.904-2.261,8.09-5.837l17.067-51.2c1.058-3.149,0.188-6.622-2.236-8.909c-2.423-2.278-5.956-2.935-9.02-1.715
				l-25.583,10.24l11.238-33.749c1.493-4.471-0.922-9.301-5.393-10.795c-4.506-1.502-9.293,0.93-10.786,5.402l-17.067,51.2
				c-1.058,3.149-0.188,6.622,2.236,8.9C235.5,68.233,239.024,68.89,242.105,67.67z"/>
			<path d="M213.33,341.342c0.546,0,1.118-0.051,1.681-0.171l85.333-17.067c4.617-0.922,7.62-5.419,6.699-10.035
				c-0.93-4.617-5.376-7.603-10.044-6.699l-85.333,17.067c-4.617,0.93-7.62,5.427-6.699,10.044
				C205.778,338.535,209.345,341.342,213.33,341.342z"/>
			<path d="M441.682,20.054c-3.063-3.576-8.448-3.977-12.023-0.922l-59.733,51.2c-2.722,2.321-3.695,6.093-2.458,9.438
				c1.237,3.345,4.429,5.572,8.004,5.572h18.338l-66.338,53.069c-3.678,2.944-4.275,8.311-1.331,11.989
				c1.69,2.116,4.164,3.208,6.673,3.208c1.869,0,3.746-0.614,5.325-1.869l85.333-68.267c2.825-2.261,3.917-6.067,2.714-9.489
				c-1.195-3.422-4.42-5.709-8.047-5.709h-19.601l42.214-36.19C444.336,29.022,444.754,23.638,441.682,20.054z"/>
			<path d="M349.872,460.809h-85.333c0-4.71-3.814-8.533-8.533-8.533c-4.719,0-8.533,3.823-8.533,8.533h-85.333
				c-14.362,0-25.6,11.247-25.6,25.6v17.067c0,4.71,3.814,8.533,8.533,8.533s8.533-3.823,8.533-8.533v-17.067
				c0-4.139,2.995-8.533,8.533-8.533h187.733c5.103,0,8.533,3.43,8.533,8.533v17.067c0,4.71,3.814,8.533,8.533,8.533
				s8.533-3.823,8.533-8.533v-17.067C375.472,471.817,364.464,460.809,349.872,460.809z"/>
			<path d="M213.33,409.609c0.546,0,1.118-0.051,1.681-0.171l85.333-17.067c4.617-0.922,7.62-5.419,6.699-10.035
				c-0.93-4.617-5.376-7.629-10.044-6.699l-85.333,17.067c-4.617,0.93-7.62,5.427-6.699,10.044
				C205.778,406.802,209.345,409.609,213.33,409.609z"/>
			<path d="M213.33,443.742c0.546,0,1.118-0.051,1.681-0.171l85.333-17.067c4.617-0.922,7.62-5.419,6.699-10.035
				c-0.93-4.617-5.376-7.629-10.044-6.699l-85.333,17.067c-4.617,0.93-7.62,5.427-6.699,10.044
				C205.778,440.935,209.345,443.742,213.33,443.742z"/>
			<path d="M136.539,65.118l53.359,60.032c3.123,3.516,8.516,3.814,12.041,0.708c3.524-3.14,3.84-8.533,0.708-12.058l-68.267-76.8
				c-2.347-2.637-6.084-3.55-9.412-2.304c-3.302,1.263-5.495,4.437-5.495,7.979v64.734L82.839,70.776
				c-3.337-3.337-8.73-3.337-12.066,0c-3.336,3.337-3.336,8.73,0,12.066l51.2,51.2c1.63,1.63,3.814,2.5,6.033,2.5
				c1.101,0,2.21-0.213,3.268-0.649c3.191-1.323,5.265-4.437,5.265-7.885V65.118z"/>
		</g>
	</g>
</g>
<g>
</g>
<g>
</g>
<g>
</g>
<g>
</g>
<g>
</g>
<g>
</g>
<g>
</g>
<g>
</g>
<g>
</g>
<g>
</g>
<g>
</g>
<g>
</g>
<g>
</g>
<g>
</g>
<g>
</g>
</svg>
