<?xml version="1.0" encoding="utf-8"?>
<!-- Generator: Adobe Illustrator 21.0.0, SVG Export Plug-In . SVG Version: 6.00 Build 0)  -->
<svg fill="#A0A0A0" version="1.1" id="Capa_1" xmlns="http://www.w3.org/2000/svg" xmlns:xlink="http://www.w3.org/1999/xlink" x="0px" y="0px"
	 width="40px" height="50px" viewBox="0 0 512 512" style="enable-background:new 0 0 512 512;" xml:space="preserve">
<g>
	<g>
		<path d="M440.4,448.9h-8.5V199.4h0.5c8.6,0,15.5-7,15.5-15.5v-16c0-8.6-7-15.5-15.5-15.5h-56.6v-17.1h8.5c2.6,0,5-1.3,6.4-3.6
			s1.5-5,0.3-7.3l-10.6-21.2h3.9c2.6,0,5-1.3,6.4-3.6s1.5-5,0.3-7.3l-10.6-21.2h3.9c2.6,0,5-1.3,6.4-3.6s1.5-5,0.3-7.3l-16-32.1
			c-1.3-2.5-3.9-4.1-6.7-4.1h-8.5V7.5c0-4.1-3.4-7.5-7.5-7.5s-7.5,3.4-7.5,7.5V24h-8.5c-2.8,0-5.4,1.6-6.7,4.1l-16,32.1
			c-1.2,2.3-1,5.1,0.3,7.3s3.8,3.6,6.4,3.6h3.9l-10.6,21.2c-1.2,2.3-1,5.1,0.3,7.3s3.8,3.6,6.4,3.6h3.9l-10.6,21.2
			c-1.2,2.3-1,5.1,0.3,7.3s3.8,3.6,6.4,3.6h8.5v17.1h-49.1v-17.1h8.5c2.6,0,5-1.3,6.4-3.6s1.5-5,0.3-7.3l-10.6-21.2h3.9
			c2.6,0,5-1.3,6.4-3.6s1.5-5,0.3-7.3l-10.6-21.2h3.9c2.6,0,5-1.3,6.4-3.6s1.5-5,0.3-7.3l-16-32.1c-1.3-2.5-3.9-4.1-6.7-4.1h-8.5
			V7.5c0-4.1-3.4-7.5-7.5-7.5s-7.5,3.4-7.5,7.5V24H240c-2.8,0-5.4,1.6-6.7,4.1l-16,32.1c-1.2,2.3-1,5.1,0.3,7.3s3.8,3.6,6.4,3.6h3.9
			l-10.6,21.2c-1.2,2.3-1,5.1,0.3,7.3s3.8,3.6,6.4,3.6h3.9l-10.6,21.2c-1.2,2.3-1,5.1,0.3,7.3s3.8,3.6,6.4,3.6h8.5v17.1h-49.1v-17.1
			h8.5c2.6,0,5-1.3,6.4-3.6s1.5-5,0.3-7.3L188,103.2h3.9c2.6,0,5-1.3,6.4-3.6s1.5-5,0.3-7.3L188,71.1h3.9c2.6,0,5-1.3,6.4-3.6
			s1.5-5,0.3-7.3l-16-32.1c-1.3-2.5-3.9-4.1-6.7-4.1h-8.5V7.5c0-4.1-3.4-7.5-7.5-7.5s-7.5,3.4-7.5,7.5V24h-8.5
			c-2.8,0-5.4,1.6-6.7,4.1l-16,32.1c-1.2,2.3-1,5.1,0.3,7.3s3.8,3.6,6.4,3.6h3.9L121,92.3c-1.2,2.3-1,5.1,0.3,7.3s3.8,3.6,6.4,3.6
			h3.9L121,124.4c-1.2,2.3-1,5.1,0.3,7.3s3.8,3.6,6.4,3.6h8.5v17.1H79.6c-8.6,0-15.5,7-15.5,15.5v16c0,8.6,7,15.5,15.5,15.5h0.5
			v249.5h-8.5c-8.6,0-15.5,7-15.5,15.5v32.1c0,8.6,7,15.5,15.5,15.5h368.7c8.6,0,15.5-7,15.5-15.5v-32.1
			C455.9,455.9,448.9,448.9,440.4,448.9z M340.8,39h22.8l8.5,17.1h-39.9L340.8,39z M340.8,71.1h22.8l8.5,17.1h-39.9L340.8,71.1z
			 M340.8,103.2h22.8l8.5,17.1h-39.9L340.8,103.2z M360.7,135.2v17.1h-17.1v-17.1H360.7z M244.6,39h22.8l8.5,17.1h-39.9L244.6,39z
			 M244.6,71.1h22.8l8.5,17.1h-39.9L244.6,71.1z M244.6,103.2h22.8l8.5,17.1h-39.9L244.6,103.2z M264.5,135.2v17.1h-17.1v-17.1
			H264.5z M148.4,39h22.8l8.5,17.1h-39.9L148.4,39z M148.4,71.1h22.8l8.5,17.1h-39.9L148.4,71.1z M148.4,103.2h22.8l8.5,17.1h-39.9
			L148.4,103.2z M168.3,135.2v17.1h-17.1v-17.1H168.3z M440.4,497H71.6c-0.3,0-0.5-0.2-0.5-0.5v-32.1c0-0.3,0.2-0.5,0.5-0.5h102.1
			c4.1,0,7.5-3.4,7.5-7.5s-3.4-7.5-7.5-7.5H95.2V199.4h57.1v8.5c0,4.1,3.4,7.5,7.5,7.5s7.5-3.4,7.5-7.5v-8.5h81.2v8.5
			c0,4.1,3.4,7.5,7.5,7.5s7.5-3.4,7.5-7.5v-8.5h81.2v8.5c0,4.1,3.4,7.5,7.5,7.5s7.5-3.4,7.5-7.5v-8.5h56.5c4.1,0,7.5-3.4,7.5-7.5
			s-3.4-7.5-7.5-7.5H79.6c-0.3,0-0.5-0.2-0.5-0.5v-16c0-0.3,0.2-0.5,0.5-0.5h352.7c0.3,0,0.5,0.2,0.5,0.5v16c0,0.3-0.2,0.5-0.5,0.5
			h-24.1c-4.1,0-7.5,3.4-7.5,7.5s3.4,7.5,7.5,7.5h8.5v249.5H135.8c-4.1,0-7.5,3.4-7.5,7.5s3.4,7.5,7.5,7.5h304.6
			c0.3,0,0.5,0.2,0.5,0.5v32.1l0,0C440.9,496.8,440.7,497,440.4,497z"/>
	</g>
</g>
<g>
	<g>
		<path d="M344.4,386.2l-76-131.6c-2.6-4.5-7.3-7.2-12.4-7.2s-9.8,2.7-12.4,7.2l-76,131.6c-2.6,4.5-2.6,9.9,0,14.4
			c2.6,4.5,7.3,7.2,12.4,7.2h152c5.2,0,9.8-2.7,12.4-7.2C347,396.1,347,390.7,344.4,386.2z M181.1,392.8L256,263.1l74.9,129.7H181.1
			z"/>
	</g>
</g>
<g>
	<g>
		<path d="M272,336.3c-1.4-1.9-3.7-3.1-6-3.1h-9.8l7-22.3c1.2-4-1-8.2-4.9-9.4s-8.2,1-9.4,4.9l-10,32.1c-0.7,2.3-0.3,4.8,1.1,6.7
			c1.4,1.9,3.7,3.1,6,3.1h9.8l-7,22.3c-1.2,4,1,8.2,4.9,9.4c0.7,0.2,1.5,0.3,2.2,0.3c3.2,0,6.2-2.1,7.2-5.3l10-32.1
			C273.9,340.7,273.4,338.2,272,336.3z"/>
	</g>
</g>
</svg>
